<?xml version="1.0" encoding="utf-8"?>
<!-- Generator: Adobe Illustrator 16.0.0, SVG Export Plug-In . SVG Version: 6.00 Build 0)  -->
<!DOCTYPE svg PUBLIC "-//W3C//DTD SVG 1.1//EN" "http://www.w3.org/Graphics/SVG/1.1/DTD/svg11.dtd">
<svg version="1.1" id="Layer_1" xmlns="http://www.w3.org/2000/svg" xmlns:xlink="http://www.w3.org/1999/xlink" x="0px" y="0px"
	 width="624.223px" height="245.34px" viewBox="0 0 624.223 245.34" enable-background="new 0 0 624.223 245.34"
	 xml:space="preserve">
<g>
	<path fill="#808284" d="M330.64,213.344c-0.147-0.504-0.198-0.957-0.198-1.311c0-3.127,0.794-7.867,2.729-12.859
		c1.738-4.488,4.07-8.12,7.346-11.246c-0.496-5.396-4.766-8.775-11.266-8.775c-6.699,0-10.914,3.48-10.914,8.069
		c0,3.579,2.776,5.851,7.293,5.851c2.531,0,5.26-0.757,8.287-2.169l0.347,0.15l0.198,0.454l-0.148,0.354
		c-2.979,1.663-6.301,2.521-9.775,2.521c-5.656,0-9.129-2.975-9.129-7.211c0-5.094,5.557-9.229,14.34-9.229
		c7.739,0,12.803,3.076,14.043,7.815c5.854-5.295,10.469-7.916,13.694-7.916c2.63,0,4.315,1.563,4.315,3.781
		c0,2.773-3.125,6.658-9.131,12.306c5.51,0.101,8.584,2.976,8.584,7.817c0,3.228-1.487,6.604-4.266,9.43
		c-2.185,2.219-4.962,3.379-7.593,3.379c-2.729,0-4.417-1.664-4.417-4.034c0-3.127,2.979-6.558,8.089-7.97l0.349,0.104l0.099,0.453
		l-0.099,0.252c-3.475,1.514-5.658,4.842-5.658,7.665c0,1.462,0.943,2.472,2.234,2.472c1.34,0,2.928-0.908,4.365-2.672
		c2.184-2.623,3.475-6.154,3.475-9.634c0-3.683-2.035-5.698-6.303-6.151c-3.92,3.781-6.896,6.203-9.08,7.16l-0.197-0.15
		c1.338-4.387,4.515-7.313,8.634-7.918c5.012-5.145,7.392-8.977,7.392-11.146c0-1.563-1.141-2.622-3.074-2.622
		c-2.58,0-6.649,2.219-11.265,6.959c0,0.051,0,0.102,0,0.151c0,3.782-1.687,9.38-5.26,16.088c-2.778,5.192-5.606,8.472-7.79,9.833
		L330.64,213.344z M340.515,189.441c-4.22,4.388-6.451,9.985-6.451,15.886c0,0.957,0.101,1.865,0.349,2.623
		C337.586,204.722,340.267,198.014,340.515,189.441z"/>
	<path fill="#808284" d="M386.56,199.679c0,0.958-0.745,2.42-2.134,4.387c-4.467,6.254-9.328,9.379-13.496,9.379
		c-3.573,0-5.807-2.471-5.807-6.304c0-2.571,1.143-5.395,3.326-8.018c2.082-2.473,4.713-3.781,6.896-3.781
		c2.43,0,4.068,1.563,4.068,3.479c0,2.977-3.822,6.707-10.967,8.928c0,2.672,1.438,4.285,3.721,4.285
		c3.82,0,9.131-4.236,14.24-12.961C386.51,199.224,386.56,199.426,386.56,199.679z M376.487,198.467c0-1.26-0.596-1.916-1.639-1.916
		c-2.232,0-5.408,3.58-6.398,10.035C373.459,205.426,376.487,201.795,376.487,198.467z"/>
	<path fill="#808284" d="M385.915,213.245c-2.481,0-4.069-1.968-4.069-5.347c0-2.924,1.737-6.403,4.962-9.379
		c2.184-1.968,4.715-3.026,7.295-3.026c1.488,0,2.927,0.303,4.363,0.959l0.25,0.354c0,0.05,0,0.05,0,0.102
		c0,0.855-0.547,2.168-1.092,4.033l-2.232,7.768c-0.148,0.604-0.297,1.158-0.297,1.764c0,0.556,0.445,1.01,0.941,1.01
		c1.688,0,4.963-4.135,10.519-12.204c0.101,0.252,0.149,0.454,0.149,0.706c0,0.908-0.744,1.865-1.787,3.327
		c-4.563,6.203-7.244,9.985-10.172,9.985c-1.588,0-2.479-0.906-2.479-2.521c0-0.907,0.496-2.772,1.438-5.647
		C390.676,210.521,388.295,213.245,385.915,213.245z M393.901,196.602c-1.535,0-3.273,1.261-5.158,3.934
		c-2.48,3.53-3.723,6.557-3.723,8.825c0,1.412,0.646,2.22,1.538,2.22c2.084,0,5.706-4.641,9.577-14.17
		C395.59,196.905,394.795,196.602,393.901,196.602z"/>
	<path fill="#808284" d="M407.049,197.004c0.199-0.553,0.248-0.856,0.895-0.957l2.035-0.403c0.1,0,0.148,0,0.197,0
		c0.248,0,0.398,0.101,0.398,0.353c0,0.103-0.051,0.254-0.101,0.455l-3.921,11.648c-0.348,1.061-0.447,1.865-0.447,2.22
		c0,0.604,0.398,1.058,0.943,1.058c1.291,0,4.963-3.629,9.525-10.893c1.541-2.471,1.59-4.234,2.78-4.488l1.886-0.401
		c0.049,0,0.1,0,0.148,0c0.248,0,0.396,0.149,0.396,0.401c0,0.151-0.051,0.303-0.102,0.455L417.817,208
		c-0.297,0.906-0.445,1.713-0.445,2.217c0,0.557,0.445,1.061,0.991,1.061c1.736,0,5.161-4.234,10.62-12.558
		c0.1,0.202,0.197,0.456,0.197,0.708c0,1.158-1.143,2.722-2.928,5.295c-4.02,5.697-7.194,8.572-9.278,8.572
		c-1.589,0-2.63-1.16-2.63-2.976c0-1.262,0.844-4.036,2.431-8.423c-4.962,7.516-8.435,11.396-11.263,11.396
		c-1.639,0-2.531-0.906-2.531-2.723c0-0.757,0.249-1.766,0.646-3.025L407.049,197.004z"/>
	<path fill="#808284" d="M429.081,197.915h-2.729l-0.102-0.304l0.199-0.706l0.248-0.253h2.828l2.033-6.505
		c0.199-0.654,0.396-1.059,0.943-1.16l1.787-0.402c0.098,0,0.146,0,0.197,0c0.248,0,0.348,0.101,0.348,0.353
		c0,0.103,0,0.253-0.051,0.403l-2.033,7.313h2.58l0.049,0.254l-0.146,0.807l-0.199,0.201h-2.629l-2.93,10.289
		c-0.297,1.008-0.395,1.713-0.395,2.217c0,0.759,0.496,1.263,1.189,1.263c2.084,0,5.756-4.237,11.115-12.608
		c0.098,0.252,0.098,0.504,0.098,0.707c0,1.209-0.941,2.521-2.332,4.488c-4.166,5.949-7.193,9.076-9.924,9.076
		c-2.084,0-3.273-1.159-3.273-3.178c0-0.756,0.348-2.42,1.092-4.992L429.081,197.915z"/>
	<path fill="#808284" d="M441.633,227.618l-0.297-0.052c-0.248-0.706-0.348-1.411-0.348-2.116c0-3.783,2.432-7.264,7.395-10.895
		c0.297-2.32,1.387-6.152,2.977-11.648c-3.971,6.604-7.541,9.934-10.668,9.934c-1.539,0-2.529-1.209-2.529-2.924
		c0-0.556,0.197-1.514,0.643-2.977l3.229-10.136c0.146-0.454,0.496-0.706,0.99-0.757l1.887-0.252c0.051,0,0.1,0,0.146,0
		c0.199,0,0.297,0.051,0.297,0.252c0,0.101-0.047,0.201-0.098,0.404l-3.521,11.498c-0.299,0.905-0.348,1.713-0.348,2.116
		c0,0.505,0.445,0.958,0.992,0.958c1.688,0,4.465-2.822,8.039-8.572c2.629-4.186,2.928-6.354,3.869-6.455l2.035-0.252
		c0.049,0,0.049,0,0.098,0c0.199,0,0.348,0.102,0.348,0.252c0,0.707-2.729,6.405-5.457,17.752
		c3.424-2.875,7.543-7.666,12.453-14.424c0.102,0.201,0.148,0.403,0.148,0.655c0,1.06-1.143,2.521-2.977,4.841
		c-3.672,4.59-6.799,8.271-10.072,10.641C449.227,221.817,446.049,225.954,441.633,227.618z M448.282,216.018
		c-3.424,2.42-5.109,4.738-5.109,7.665c0,0.454,0.1,1.058,0.346,1.815C446.049,224.137,447.637,220.959,448.282,216.018z"/>
	<path fill="#808284" d="M490.954,213.647c-0.496-0.504-0.547-1.514-0.547-3.025c0-6.707,3.475-14.625,10.521-21.733
		c-0.846-6.354-5.658-10.188-13.102-10.188c-6.896,0-11.162,3.58-11.162,7.867c0,3.883,2.926,6.405,7.639,6.405
		c3.771,0,7.99-1.362,12.805-3.935l0.346,0.051l0.148,0.303l-0.1,0.402c-5.061,2.977-10.121,4.438-14.637,4.438
		c-5.807,0-9.277-3.024-9.277-7.263c0-5.295,5.408-9.379,14.486-9.379c9.082,0,15.035,3.832,15.729,8.977
		c5.408-4.74,9.527-7.212,12.854-7.212c2.777,0,4.514,1.664,4.514,4.235c0,3.984-4.02,9.027-12.057,14.271
		c1.836,1.664,3.025,4.338,4.168,8.119c1.043,3.479,1.438,5.85,3.424,5.85c1.688,0,5.756-4.084,11.313-12.506
		c0.1,0.403,0.148,0.707,0.148,0.959c0,0.807-0.844,1.967-2.283,3.883c-4.416,5.851-7.193,9.127-10.221,9.127
		c-3.373,0-4.02-2.772-5.508-7.262c-1.289-3.934-2.332-6.253-3.076-7.01c-2.68,0.958-4.367,1.613-5.061,1.664l-0.102-0.202
		l0.695-1.664c0.445-1.06,1.984-1.815,3.721-1.815c0.547,0,1.193,0.102,1.787,0.252c6.648-3.982,9.973-8.723,9.973-12.002
		c0-2.018-1.537-3.528-3.92-3.528c-2.479,0-5.854,2.067-10.221,6.151c0,0.051,0,0.102,0,0.151c0,3.177-1.738,8.724-5.705,16.138
		c-2.234,4.235-4.863,7.563-7.047,9.479L490.954,213.647L490.954,213.647z M500.827,190.45c-4.91,4.641-7.492,10.338-7.492,16.037
		c0,1.059,0.1,2.018,0.348,2.874C497.901,204.215,500.282,197.915,500.827,190.45z"/>
	<path fill="#808284" d="M539.282,209.006c1.537,0,4.217-3.528,8.881-10.187c0.1,0.202,0.148,0.403,0.148,0.606
		c0,0.906-0.795,2.117-2.135,3.933c-3.623,4.94-5.854,7.614-7.838,7.614c-0.695,0-1.34-0.303-1.887-0.907
		c-2.232,2.271-4.416,3.431-6.848,3.431c-3.771,0-6.252-2.522-6.252-6.404c0-2.674,1.143-5.346,3.473-7.868
		c2.332-2.572,5.063-3.882,7.543-3.882c3.127,0,5.559,2.621,5.559,6.453c0,1.968-0.646,3.983-1.887,6.154
		C538.19,208.655,538.686,209.006,539.282,209.006z M534.12,196.4c-0.941,0-1.934,0.505-2.877,1.413
		c-2.629,2.521-4.316,6.757-4.316,10.188c0,2.824,1.191,4.388,3.176,4.388c1.639,0,3.424-1.413,5.26-4.237
		c-0.248-0.554-0.348-1.158-0.348-1.865c0-1.967,0.795-4.136,2.381-6.354C536.95,197.611,535.809,196.4,534.12,196.4z"/>
	<path fill="#808284" d="M560.071,209.006c1.537,0,4.217-3.528,8.881-10.187c0.1,0.202,0.15,0.403,0.15,0.606
		c0,0.906-0.797,2.117-2.137,3.933c-3.621,4.94-5.854,7.614-7.838,7.614c-0.697,0-1.342-0.303-1.887-0.907
		c-2.232,2.271-4.416,3.431-6.848,3.431c-3.771,0-6.252-2.522-6.252-6.404c0-2.674,1.141-5.346,3.475-7.868
		c2.332-2.572,5.061-3.882,7.541-3.882c3.127,0,5.557,2.621,5.557,6.453c0,1.968-0.643,3.983-1.885,6.154
		C558.979,208.655,559.475,209.006,560.071,209.006z M554.911,196.4c-0.943,0-1.938,0.505-2.879,1.413
		c-2.629,2.521-4.316,6.757-4.316,10.188c0,2.824,1.189,4.388,3.176,4.388c1.639,0,3.424-1.413,5.26-4.237
		c-0.248-0.554-0.348-1.158-0.348-1.865c0-1.967,0.793-4.136,2.381-6.354C557.739,197.611,556.596,196.4,554.911,196.4z"/>
	<path fill="#808284" d="M569.249,196.956c0.15-0.504,0.348-0.705,0.744-0.808l1.984-0.403c0.051,0,0.148,0,0.199,0
		c0.297,0,0.445,0.151,0.445,0.403c0,0.103,0,0.202-0.049,0.304l-3.076,10.236c4.066-7.363,6.947-11.145,9.875-11.145
		c1.635,0,2.629,0.908,2.629,2.369c0,1.262-0.795,4.187-2.234,8.926c4.367-7.313,7.742-11.194,10.42-11.194
		c1.539,0,2.531,1.06,2.531,2.875c0,1.916-1.24,4.336-2.281,7.815c-0.596,1.867-0.895,3.127-0.895,3.731
		c0,0.808,0.348,1.16,1.092,1.16c1.787,0,4.961-4.136,10.471-12.003c0.049,0.203,0.1,0.455,0.1,0.656
		c0,1.261-0.992,2.521-2.531,4.588c-4.117,5.599-6.6,8.775-9.674,8.775c-1.49,0-2.631-1.211-2.631-2.775
		c0-1.764,0.744-3.832,1.637-6.555c0.943-2.873,1.736-4.64,1.736-5.447c0-0.553-0.445-0.957-0.992-0.957
		c-1.291,0-4.068,3.076-7.789,9.38c-2.232,3.731-2.582,5.75-3.523,5.95l-1.736,0.304c-0.049,0-0.1,0-0.148,0
		c-0.297,0-0.445-0.101-0.445-0.252c0-0.152,0-0.404,0.098-0.706l3.277-12.104c0.195-0.807,0.346-1.361,0.346-1.765
		c0-0.604-0.297-0.907-0.842-0.907c-1.391,0-3.822,2.975-7.195,8.875c-2.334,4.135-2.877,6.354-3.523,6.454l-2.133,0.404
		c-0.051,0-0.1,0-0.148,0c-0.248,0-0.348-0.151-0.348-0.404c0-0.2,0-0.401,0.1-0.653L569.249,196.956z"/>
	<path fill="#808284" d="M601.897,213.344c-3.027,0-4.861-1.26-4.861-2.823c0-1.263,1.141-2.22,2.828-2.22
		c0.494,0,0.99,0.102,1.387,0.253v0.2c-0.645,0.404-0.99,1.061-0.99,1.715c0,0.96,0.99,1.716,2.629,1.716
		c2.531,0,4.217-1.412,4.217-3.179c0-1.662-1.238-2.621-3.025-3.982c-2.133-1.613-3.621-2.773-3.621-4.539
		c0-2.471,3.125-5.094,7.443-5.094c2.332,0,3.521,0.707,3.521,2.271c0,1.108-1.34,2.369-3.475,2.521l-0.148-0.252
		c0.596-0.505,0.943-1.16,0.943-1.917c0-0.807-0.795-1.463-2.084-1.463c-1.986,0-3.273,1.109-3.273,2.472
		c0,1.765,1.785,2.571,4.068,4.388c1.686,1.361,2.529,2.621,2.529,4.086c0,1.059-0.496,2.016-1.439,3.024
		c2.48-0.403,6.154-4.337,10.568-11.853c0.148,0.151,0.199,0.354,0.199,0.605c0,0.958-0.844,2.672-2.68,5.193
		c-3.375,4.691-6.303,7.314-10.123,7.717C604.922,212.941,603.387,213.344,601.897,213.344z"/>
</g>
<g>
	<path fill="#75C044" d="M72.865,102.497c-2.241,0-5.443,0-8.645-0.32c-10.566,13.769-19.852,28.816-27.857,44.826l-1.92,0.961
		l-2.882-1.28l-0.641-1.923c4.803-12.807,13.127-27.535,25.615-43.864C24.196,97.372,4.344,78.161,4.344,57.028
		c0-27.537,37.142-53.792,97.018-53.792c58.916,0,94.137,30.419,94.137,79.727c0,16.971-3.842,36.182-11.527,56.995
		c-9.286,24.655-21.773,44.828-35.541,59.558c-25.616,27.216-57.636,42.264-83.891,42.264c-21.773,0-33.94-9.926-33.94-24.653
		c0-16.33,16.97-33.301,43.546-37.463l1.601,0.961l0.32,2.24l-0.32,1.922c-17.931,5.443-27.536,15.049-27.536,26.576
		c0,12.167,10.246,21.133,27.216,21.133c20.172,0,42.905-12.166,59.875-34.261c21.773-28.498,35.542-70.122,35.542-113.669
		c0-14.088-1.921-26.255-6.083-36.501C149.07,81.043,113.53,102.497,72.865,102.497z M96.56,10.281
		c-44.187,0-73.324,21.133-73.324,45.467c0,17.932,13.768,31.7,39.384,37.463c32.659-32.659,65.639-48.99,94.776-48.99
		c1.921,0,3.842,0.32,5.763,0.32C153.233,22.768,129.859,10.281,96.56,10.281z M71.584,94.171c1.92,0,3.842,0,5.763,0
		c32.66,0,56.995-15.369,66.6-40.023C121.534,56.708,96.239,70.156,71.584,94.171z"/>
	<path fill="#75C044" d="M210.902,87.045c1.064-3.192,1.916-5.108,4.896-5.747l7.237-1.702c0.426-0.213,1.064-0.213,1.49-0.213
		c1.064,0,1.703,0.639,1.703,1.702c0,0.426,0,0.852-0.213,1.49l-14.474,45.974c21.285-32.991,36.822-49.379,47.464-49.379
		c6.598,0,11.707,5.321,11.707,11.919c0,4.47-2.128,11.281-5.534,21.072c-5.108,14.472-8.727,24.05-8.727,28.946
		c0,1.916,1.916,3.619,4.044,3.619c6.598,0,21.071-16.813,44.91-49.806c0.426,0.852,0.639,1.703,0.639,2.555
		c0,5.108-6.172,12.345-15.538,24.689c-15.963,20.859-26.818,31.502-35.758,31.502c-7.237,0-12.558-5.533-12.558-13.195
		c0-5.535,4.044-15.752,9.365-31.928c3.405-10.216,5.108-15.75,5.108-17.453c0-1.702-1.49-3.192-3.405-3.192
		c-4.683,0-15.325,10.004-30.011,30.649c-6.811,9.579-11.707,17.879-14.899,25.116c-2.128,4.685-1.916,7.236-6.173,8.088
		l-7.875,1.49c-0.213,0-0.639,0-0.852,0c-1.277,0-1.916-0.639-1.916-1.916c0-0.852,0-1.701,0.426-2.766L210.902,87.045z"/>
	<path fill="#75C044" d="M284.118,127.06c0-0.427,0.213-1.276,0.851-2.129l3.193-4.256c0.639-0.852,1.277-1.278,1.703-1.278
		c0.639,0,1.49,0.213,2.341,0.852l5.959,3.404C313.064,56.395,329.027,16.38,341.374,3.397h0.852
		c2.554,3.192,4.257,11.28,4.257,23.412c0,28.521-11.067,55.766-32.353,78.114c-1.064,8.301-2.769,16.814-5.748,25.542
		c4.896,3.617,10.004,5.32,15.963,5.32c14.899,0,25.542-15.112,44.485-43.847c0.213,1.064,0.426,2.129,0.426,2.979
		c0,5.534-3.832,10.004-8.939,17.241c-14.261,19.155-23.839,30.862-40.865,30.862c-5.109,0-10.004-1.276-14.688-4.256
		c4.044,11.918,6.598,22.135,6.598,31.713c0,18.519-7.875,34.269-21.071,43.207l-1.064-0.213
		c-2.128-2.979-2.767-10.642-2.767-22.772c0-12.771,2.979-31.289,9.365-55.554C287.949,131.103,284.118,128.763,284.118,127.06z
		 M306.679,169.204c0-5.959-1.063-12.345-3.405-19.367c-8.301,20.645-11.919,37.246-11.919,48.102c0,1.49,0,2.768,0.212,4.045
		C301.571,194.32,306.679,183.25,306.679,169.204z M338.393,43.625c0-7.45-1.275-14.474-3.831-21.498
		c-6.386,15.325-9.151,40.229-17.879,72.793C330.943,79.809,338.393,61.078,338.393,43.625z"/>
	<path fill="#75C044" d="M369.465,85.342c0.851-2.341,1.063-3.618,3.83-4.044l8.728-1.702c0.427,0,0.64,0,0.853,0
		c1.063,0,1.701,0.426,1.701,1.489c0,0.426-0.213,1.064-0.426,1.916l-16.814,49.167c-1.489,4.471-1.914,7.877-1.914,9.365
		c0,2.555,1.701,4.471,4.043,4.471c5.533,0,21.285-15.326,40.867-45.976c6.598-10.429,6.811-17.879,11.918-18.943l8.088-1.702
		c0.213,0,0.426,0,0.639,0c1.064,0,1.703,0.639,1.703,1.702c0,0.639-0.213,1.277-0.426,1.916l-16.602,48.741
		c-1.277,3.832-1.916,7.238-1.916,9.365c0,2.342,1.916,4.471,4.258,4.471c7.449,0,22.135-17.879,45.549-52.999
		c0.426,0.852,0.852,1.915,0.852,2.979c0,4.896-4.896,11.494-12.559,22.349c-17.24,24.051-30.862,36.184-39.803,36.184
		c-6.811,0-11.279-4.896-11.279-12.559c0-5.32,3.617-17.027,10.43-35.545c-21.285,31.715-36.186,48.104-48.316,48.104
		c-7.023,0-10.854-3.832-10.854-11.494c0-3.191,1.063-7.449,2.767-12.77L369.465,85.342z"/>
	<path fill="#75C044" d="M466.733,154.304c-12.984,0-20.859-5.32-20.859-11.921c0-5.319,4.896-9.364,12.133-9.364
		c2.129,0,4.256,0.426,5.959,1.063v0.853c-2.766,1.703-4.256,4.472-4.256,7.235c0,4.045,4.256,7.238,11.279,7.238
		c10.855,0,18.092-5.961,18.092-13.41c0-7.022-5.32-11.067-12.982-16.814c-9.152-6.811-15.537-11.706-15.537-19.156
		c0-10.429,13.408-21.497,31.928-21.497c10.002,0,15.109,2.979,15.109,9.578c0,4.683-5.746,10.004-14.896,10.643l-0.641-1.064
		c2.555-2.129,4.045-4.896,4.045-8.088c0-3.406-3.404-6.173-8.939-6.173c-8.514,0-14.047,4.683-14.047,10.43
		c0,7.449,7.662,10.854,17.453,18.518c7.236,5.746,10.854,11.067,10.854,17.241c0,4.469-2.129,8.514-6.172,12.77
		c10.643-1.7,26.393-18.305,45.336-50.017c0.639,0.639,0.852,1.49,0.852,2.554c0,4.044-3.617,11.281-11.494,21.924
		c-14.473,19.794-27.031,30.863-43.42,32.566C479.715,152.601,473.118,154.304,466.733,154.304z"/>
	<path fill="#75C044" d="M616.571,96.623c0,4.044-3.191,10.217-9.152,18.518c-19.156,26.393-40.014,39.589-57.893,39.589
		c-15.326,0-24.904-10.431-24.904-26.604c0-10.856,4.896-22.775,14.262-33.842c8.939-10.43,20.221-15.964,29.586-15.964
		c10.43,0,17.453,6.599,17.453,14.687c0,12.558-16.389,28.309-47.039,37.672c0,11.281,6.172,18.094,15.963,18.094
		c16.391,0,39.164-17.881,61.086-54.702C616.358,94.707,616.571,95.559,616.571,96.623z M573.364,91.515
		c0-5.321-2.555-8.088-7.023-8.088c-9.578,0-23.201,15.112-27.457,42.357C560.381,120.888,573.364,105.563,573.364,91.515z"/>
</g>
</svg>
